<svg xmlns="http://www.w3.org/2000/svg" xmlns:xlink="http://www.w3.org/1999/xlink" viewBox="0 0 685.79 107.32"><defs><style>.cls-1{fill:#c3ddf5;opacity:0.5;}.cls-2{fill:url(#Degradado_sin_nombre_9);}.cls-3{fill:url(#Degradado_sin_nombre_9-2);}</style><radialGradient id="Degradado_sin_nombre_9" cx="336.32" cy="-31.25" r="371.09" gradientTransform="translate(70 29.66) scale(0.81 0.88)" gradientUnits="userSpaceOnUse"><stop offset="0" stop-color="#c3ddf5" stop-opacity="0.5"/><stop offset="1" stop-color="#c3ddf5" stop-opacity="0.1"/></radialGradient><radialGradient id="Degradado_sin_nombre_9-2" cx="-1045.14" cy="-129.32" r="371.09" gradientTransform="translate(-505.2 -8.14) rotate(180) scale(0.81 0.88)" xlink:href="#Degradado_sin_nombre_9"/></defs><g id="Capa_2" data-name="Capa 2"><g id="Capa_1-2" data-name="Capa 1"><polygon class="cls-1" points="259.92 0 259.92 2.38 267.81 8.94 402.31 8.94 410.49 2.98 410.64 0.45 259.92 0"/><polygon class="cls-2" points="0.13 0.08 685.79 0.36 685.79 4.16 473.74 4.16 382.06 4.39 0.03 4.5 0.13 0.08"/><polygon class="cls-1" points="408.85 107.31 408.85 104.93 401.06 98.37 268.13 98.37 260.04 104.33 259.9 106.87 408.85 107.31"/><polygon class="cls-3" points="685.66 107.32 0 107.05 0 103.24 212.05 103.24 303.72 103.02 685.76 102.91 685.66 107.32"/></g></g></svg>